<?xml version="1.0" encoding="utf-8"?>
<svg version="1.1" id="图层_1" xmlns="http://www.w3.org/2000/svg" xmlns:xlink="http://www.w3.org/1999/xlink" x="0px"
	y="0px" viewBox="0 0 48 48" style="enable-background:new 0 0 48 48;" xml:space="preserve">
	<style type="text/css">
		.st0 {
			fill: none;
			stroke: #46AEF6;
			stroke-width: 1.3;
			stroke-linecap: square;
		}

		.st1 {
			fill: #2878BB;
		}

		.st2 {
			fill: #46AEF6;
		}
	</style>
	<path class="st0" d="M10,24h24v10c0,6-4,10-10,10h-4c-5.6,0-10-4-10-10V24z" />
	<path class="st0" d="M34,27h4c2.2,0,4,1.8,4,4l0,0c0,2-1.8,4-4,4h-4" />
	<path class="st0" d="M26.3,6c1.4,0.9,2.2,2.2,2.3,4c0.1,2.4-3,3.4-3.3,5.7c-0.2,1.2-0.7,2.4,2.6,4.4" />
	<path class="st0" d="M16.7,5.9c1.4,0.9,2.2,2.2,2.3,4c0.1,2.4-3,3.4-3.3,5.7c-0.2,1.2-0.7,2.4,2.6,4.4" />
	<g id="kt">
		<path id="Hor2" class="st1"
			d="M19.3,36.4c2.4-1.3,9.7-4.4,9.7-4.4l-2.5-1.1c-7.5,3.7-9.2,5.2-9.2,5.2L19.3,36.4z" />
		<polygon id="Hor1" class="st1" points="18.4,28.1 23.8,27.6 23.2,29.8 20.4,30.2 	" />
		<path id="X1" class="st2" d="M23.8,27.6l1.5,1.8c0,0-1.7,3.7-3.1,7.4c3.9,0.7,5.1,1.1,5.1,1.1l-0.7,0.5c-3.7-0.7-4.7-0.7-4.7-0.7
		L21,39.8l-1.4,0.6l0.9-2.9L18,37.2L17.3,36l3.5,0.5C20.8,36.5,22.5,31.4,23.8,27.6z" />
	</g>
</svg>